 <svg  version="1.0" xmlns="http://www.w3.org/2000/svg"  width="900.000000pt" height="900.000000pt" viewBox="0 0 900.000000 900.000000"  preserveAspectRatio="xMidYMid meet">  <g transform="translate(0.000000,900.000000) scale(0.100000,-0.100000)" fill="#ffffff" stroke="none"> <path d="M4295 8609 c-238 -11 -471 -41 -665 -85 -209 -48 -224 -52 -400 -107 -108 -33 -134 -43 -245 -87 -75 -30 -109 -44 -180 -75 -52 -23 -268 -131 -315 -158 -25 -14 -62 -35 -82 -46 -21 -11 -57 -33 -80 -48 -24 -15 -51 -32 -60 -38 -39 -22 -218 -147 -257 -177 -22 -18 -64 -51 -92 -73 -29 -22 -57 -44 -63 -50 -6 -5 -47 -41 -91 -79 -188 -164 -406 -397 -557 -597 -67 -88 -198 -277 -198 -285 0 -1 -13 -22 -29 -46 -16 -24 -39 -61 -51 -83 -12 -22 -31 -56 -42 -75 -21 -34 -134 -261 -166 -330 -39 -87 -99 -237 -121 -307 -12 -33 -25 -72 -30 -85 -5 -12 -17 -50 -26 -83 -10 -33 -24 -80 -31 -105 -13 -43 -30 -114 -59 -245 -103 -458 -115 -1103 -29 -1560 51 -271 73 -358 154 -600 49 -149 64 -192 89 -250 7 -16 19 -45 27 -63 37 -87 143 -305 187 -382 14 -25 35 -63 47 -85 12 -22 35 -59 51 -83 16 -24 29 -45 29 -46 0 -7 86 -131 205 -294 24 -33 98 -125 106 -132 3 -3 36 -41 74 -85 88 -103 267 -282 370 -370 44 -38 82 -72 85 -75 19 -24 411 -310 425 -310 2 0 23 -13 47 -29 24 -16 61 -39 83 -51 22 -12 60 -33 85 -47 246 -140 569 -272 895 -367 66 -20 171 -44 375 -86 30 -7 87 -16 125 -20 39 -5 106 -14 150 -21 55 -9 198 -13 455 -13 307 -1 398 3 500 17 196 28 363 61 530 105 52 13 109 28 125 32 115 30 381 127 525 192 69 32 296 145 330 166 19 11 53 30 75 42 22 12 59 35 83 51 24 16 45 29 47 29 10 0 285 196 351 250 223 184 367 321 524 500 41 46 80 90 85 96 56 62 305 405 305 419 0 2 13 23 29 47 16 24 39 61 51 83 12 22 33 60 47 85 26 46 133 259 159 317 94 210 194 501 238 693 8 36 21 94 30 130 15 67 37 190 56 320 16 107 30 350 31 528 1 277 -14 466 -57 717 -50 290 -158 658 -270 910 -15 36 -91 200 -108 235 -21 43 -98 183 -123 222 -12 21 -23 40 -23 43 0 3 -8 18 -19 33 -10 15 -45 68 -77 117 -283 440 -736 893 -1174 1176 -165 107 -177 114 -200 126 -8 4 -37 20 -65 36 -63 37 -222 117 -300 152 -33 14 -73 32 -90 39 -124 55 -359 140 -460 166 -16 4 -73 19 -125 32 -287 75 -539 114 -795 123 -88 3 -180 7 -205 9 -25 2 -126 0 -225 -5z m312 -1889 c85 -29 168 -99 212 -180 l36 -65 3 -790 c2 -707 4 -791 19 -807 15 -16 65 -18 807 -20 l791 -3 65 -36 c119 -65 200 -199 200 -329 0 -130 -78 -260 -197 -327 l-68 -38 -791 -3 c-742 -2 -792 -4 -807 -20 -15 -16 -17 -100 -19 -807 l-3 -790 -38 -68 c-67 -119 -197 -197 -327 -197 -130 0 -264 81 -329 200 l-36 65 -3 790 c-2 707 -4 791 -19 807 -15 16 -65 18 -807 20 l-791 3 -65 36 c-119 65 -200 199 -200 329 0 130 81 264 200 329 l65 36 791 3 c742 2 792 4 807 20 15 16 17 100 19 807 l3 790 36 65 c88 161 276 237 446 180z"/> </g> </svg> 