 <svg  version="1.0" xmlns="http://www.w3.org/2000/svg"  width="300.000000pt" height="300.000000pt" viewBox="0 0 300.000000 300.000000"  preserveAspectRatio="xMidYMid meet">  <g transform="translate(0.000000,300.000000) scale(0.050000,-0.050000)" fill="#ffffff" stroke="none"> <path d="M2607 5929 c0 -15 8 -22 19 -15 12 7 15 -8 7 -41 -11 -43 -7 -53 22 -51 20 1 25 5 10 11 -17 7 -19 21 -6 45 13 25 9 40 -17 56 -27 17 -35 16 -35 -5z"/> <path d="M2940 4839 c-1282 -428 -2364 -793 -2405 -812 -156 -69 -207 -297 -94 -418 26 -27 488 -270 1028 -540 l981 -489 1505 1505 c828 828 1505 1512 1505 1520 0 67 -279 -18 -2520 -766z m1720 281 c0 -55 -2211 -2241 -2266 -2241 -72 1 -1729 834 -1755 882 -24 46 -210 -21 2061 738 1961 655 1960 655 1960 621z"/> <path d="M4084 3954 l-1506 -1506 496 -989 c426 -849 506 -995 564 -1034 128 -85 321 -39 381 90 192 408 1647 4945 1586 4945 -8 0 -693 -678 -1521 -1506z m455 -1229 c-675 -2028 -696 -2085 -758 -2085 -63 0 -103 69 -505 877 -212 425 -390 778 -396 783 -63 63 -38 92 1133 1263 712 712 1159 1146 1163 1127 4 -16 -283 -901 -637 -1965z"/> </g> </svg> 