 <svg  version="1.0" xmlns="http://www.w3.org/2000/svg"  width="900.000000pt" height="900.000000pt" viewBox="0 0 900.000000 900.000000"  preserveAspectRatio="xMidYMid meet">  <g transform="translate(0.000000,900.000000) scale(0.100000,-0.100000)" fill="#ffffff" stroke="none"> <path d="M3410 8404 c-36 -8 -83 -19 -105 -25 -22 -6 -60 -14 -85 -20 -24 -5 -49 -14 -54 -19 -6 -6 -18 -10 -27 -10 -27 0 -246 -101 -321 -148 -147 -93 -218 -149 -346 -275 -113 -111 -281 -335 -322 -430 -6 -12 -14 -29 -19 -37 -15 -25 -68 -142 -84 -185 -34 -95 -40 -112 -46 -150 -4 -22 -13 -50 -19 -62 -7 -12 -12 -34 -12 -50 0 -15 -7 -60 -15 -98 -20 -96 -20 -380 0 -458 8 -32 15 -70 15 -86 0 -15 6 -47 14 -72 7 -24 21 -71 31 -104 17 -57 24 -78 61 -162 36 -83 51 -112 108 -208 74 -125 154 -231 240 -317 66 -67 78 -90 52 -105 -31 -17 -232 -220 -248 -250 -33 -60 -16 -125 44 -172 25 -20 41 -21 664 -25 352 -2 650 -5 664 -7 35 -6 38 25 6 59 -61 64 -211 350 -230 439 -4 18 -12 35 -17 38 -5 4 -9 16 -9 28 0 12 -6 39 -14 62 -23 67 -44 182 -63 334 -14 126 -15 161 -4 275 22 237 34 314 63 406 6 19 15 51 19 70 4 19 13 51 19 70 38 106 44 121 84 213 25 56 57 121 66 137 5 8 30 51 56 95 40 67 83 131 122 180 4 6 28 37 54 70 42 55 191 205 263 265 62 52 113 90 120 90 4 0 24 13 44 29 119 93 399 217 534 237 26 3 49 10 52 14 6 10 -33 44 -80 70 -22 12 -53 30 -70 40 -31 20 -90 51 -180 96 -27 14 -63 32 -78 40 -16 8 -36 14 -45 14 -9 0 -26 7 -36 15 -11 8 -28 15 -39 15 -10 0 -31 6 -45 14 -30 15 -102 34 -177 47 -27 5 -70 13 -95 18 -71 16 -434 12 -510 -5z m479 -119 c230 -38 484 -123 531 -179 18 -23 -8 -49 -90 -90 -221 -111 -442 -285 -630 -497 -92 -104 -116 -136 -210 -279 -48 -73 -134 -240 -156 -302 -8 -23 -18 -46 -23 -52 -12 -15 -86 -247 -106 -331 -33 -137 -46 -253 -51 -445 -10 -331 37 -569 173 -878 30 -68 53 -133 51 -145 l-3 -22 -486 -3 c-422 -2 -488 0 -499 13 -20 25 -4 58 70 141 71 79 120 160 120 199 0 25 -71 148 -109 190 -95 104 -220 302 -283 450 -82 192 -117 342 -125 547 -24 587 291 1158 807 1468 203 121 432 199 660 223 90 10 274 5 359 -8z"/> <path d="M5110 7829 c-133 -17 -257 -46 -395 -92 -104 -35 -125 -43 -137 -55 -7 -7 -18 -12 -24 -12 -33 0 -272 -144 -349 -209 -43 -38 -226 -221 -255 -256 -21 -26 -125 -178 -157 -231 -6 -10 -28 -53 -48 -94 -20 -41 -42 -88 -50 -103 -8 -16 -15 -36 -15 -46 0 -9 -4 -21 -8 -26 -18 -21 -70 -208 -96 -345 -19 -99 -23 -482 -6 -540 6 -19 15 -62 20 -95 13 -78 35 -157 78 -270 24 -65 82 -184 92 -190 6 -4 10 -12 10 -20 0 -15 64 -112 139 -210 103 -137 325 -336 466 -421 28 -16 59 -35 70 -41 84 -51 263 -125 375 -156 99 -28 154 -39 230 -49 41 -6 415 -12 830 -15 591 -3 763 -1 794 9 51 16 96 76 96 128 0 49 -31 90 -168 222 -100 96 -131 138 -103 138 29 0 203 208 285 341 38 60 92 167 121 234 7 17 19 46 28 65 8 19 18 46 20 60 3 14 10 39 15 55 63 181 89 482 57 652 -8 43 -15 91 -15 107 0 16 -7 54 -16 85 -8 31 -22 81 -31 111 -8 30 -21 70 -29 88 -8 18 -14 37 -14 42 0 11 -55 135 -71 160 -5 8 -11 21 -14 28 -13 32 -16 39 -35 67 -11 17 -24 39 -30 50 -55 109 -273 362 -385 447 -16 12 -34 28 -40 35 -21 25 -213 145 -310 193 -123 60 -180 81 -295 110 -25 7 -61 17 -80 22 -88 28 -417 43 -550 27z m386 -129 c90 -10 257 -49 349 -81 75 -25 254 -116 326 -164 140 -94 305 -249 394 -370 160 -218 284 -497 327 -735 20 -117 17 -483 -6 -589 -27 -128 -95 -320 -138 -396 -86 -148 -112 -186 -243 -355 -86 -111 -109 -154 -102 -196 6 -37 68 -132 120 -184 41 -41 77 -98 77 -122 0 -11 -11 -21 -27 -25 -16 -5 -338 -8 -718 -8 -776 0 -815 3 -1040 72 -169 52 -344 137 -465 227 -199 148 -335 293 -448 478 -158 258 -222 495 -222 820 0 281 28 421 137 680 96 227 242 426 428 582 39 33 74 65 78 73 4 7 12 13 18 13 5 0 44 21 87 48 183 112 407 192 637 227 99 15 322 18 431 5z"/> <path d="M4515 6790 c-96 -10 -134 -29 -199 -101 -75 -83 -94 -156 -61 -234 18 -46 110 -142 157 -166 70 -36 156 -40 715 -37 619 3 585 -2 689 102 63 63 86 111 86 177 0 85 -75 189 -170 236 l-57 28 -545 1 c-300 1 -576 -2 -615 -6z m1199 -133 c58 -33 81 -69 81 -127 0 -58 -23 -94 -81 -127 l-39 -23 -596 0 c-512 0 -602 2 -633 15 -47 20 -73 46 -92 95 -15 37 -15 43 0 80 18 45 41 71 83 94 24 13 110 15 633 15 l605 1 39 -23z"/> <path d="M4545 6221 c-101 -8 -164 -39 -233 -117 -82 -92 -92 -180 -30 -276 31 -50 78 -92 138 -124 34 -18 72 -19 940 -19 l905 0 47 22 c54 24 129 99 154 151 27 57 29 113 6 164 -25 58 -83 122 -141 156 -46 27 -47 27 -311 35 -362 10 -1377 16 -1475 8z m1776 -156 c80 -61 79 -170 -3 -234 -26 -21 -30 -21 -953 -21 -923 0 -927 0 -956 21 -30 21 -69 86 -69 114 0 40 60 123 100 138 8 3 429 5 935 4 902 -2 921 -2 946 -22z"/> <path d="M2325 3980 c-98 -9 -225 -44 -298 -82 -104 -54 -134 -72 -192 -118 -89 -71 -225 -236 -225 -274 0 -8 -7 -19 -15 -26 -8 -7 -15 -21 -15 -31 0 -10 -4 -20 -9 -23 -11 -7 -44 -115 -65 -212 -21 -96 -22 -316 -1 -374 8 -23 15 -53 15 -66 0 -25 13 -60 63 -164 36 -73 55 -105 112 -176 76 -95 195 -194 290 -238 22 -11 52 -25 67 -33 14 -7 33 -13 42 -13 8 0 30 -6 48 -14 78 -33 167 -46 309 -46 200 0 357 42 537 144 75 43 248 216 275 274 4 9 16 31 27 47 11 17 23 37 26 45 3 8 12 29 19 45 56 129 75 221 75 372 0 70 -5 146 -11 168 -5 22 -13 60 -18 85 -9 45 -23 90 -47 145 -7 17 -15 37 -18 45 -8 19 -64 118 -76 133 -77 96 -126 150 -153 169 -17 12 -41 31 -52 41 -11 10 -29 23 -40 28 -11 5 -33 18 -50 29 -16 11 -37 23 -45 26 -8 3 -28 12 -45 19 -90 39 -107 45 -120 45 -8 0 -34 6 -57 14 -53 17 -245 26 -353 16z m348 -145 c397 -101 637 -441 614 -869 -7 -118 -30 -202 -89 -321 -154 -313 -520 -484 -898 -420 -261 43 -454 170 -578 380 -37 63 -56 107 -95 225 -6 21 -11 100 -11 195 1 136 4 172 24 240 85 299 290 495 600 574 117 30 306 28 433 -4z"/> <path d="M6435 3980 c-138 -8 -213 -29 -353 -99 -126 -62 -158 -85 -255 -186 -64 -65 -167 -219 -167 -248 0 -7 -5 -18 -11 -24 -6 -6 -14 -26 -19 -44 -4 -19 -13 -47 -19 -64 -42 -123 -57 -394 -26 -480 8 -22 15 -50 15 -62 0 -28 61 -166 117 -265 40 -72 201 -232 275 -274 101 -57 195 -93 334 -129 81 -20 342 -20 399 0 22 8 51 15 65 15 14 0 38 7 54 15 15 8 36 15 45 15 10 0 26 7 37 15 10 8 24 15 31 15 20 0 135 72 193 119 115 95 186 184 247 311 49 103 63 139 63 163 0 12 7 44 15 71 32 105 17 329 -32 496 -62 206 -226 416 -399 510 -21 11 -46 25 -54 29 -144 81 -323 113 -555 101z m338 -149 c284 -83 467 -261 558 -542 33 -101 34 -109 33 -269 l0 -165 -41 -106 c-112 -291 -314 -460 -623 -520 -119 -22 -204 -24 -320 -5 -331 55 -563 254 -662 566 -20 67 -23 93 -22 240 1 158 3 169 34 260 42 125 71 180 136 266 117 154 318 267 529 298 74 11 311 -4 378 -23z"/> <path d="M1540 2084 c-25 -20 -46 -40 -48 -45 -2 -5 -8 -9 -13 -9 -22 0 -198 -163 -307 -283 -73 -82 -175 -234 -222 -332 -18 -38 -39 -82 -46 -97 -8 -14 -14 -34 -14 -45 0 -10 -7 -36 -15 -58 -21 -60 -19 -219 4 -291 47 -147 139 -254 271 -315 111 -53 16 -49 1303 -49 1014 1 1196 3 1217 15 14 8 33 14 42 15 30 0 132 68 184 122 58 59 95 121 125 209 33 94 20 280 -26 394 -26 65 -80 172 -107 213 -15 24 -28 45 -28 48 0 3 -26 40 -59 82 -65 85 -238 264 -316 327 -88 71 -176 135 -185 135 -6 0 -31 -20 -58 -45 -26 -25 -51 -45 -56 -45 -4 0 -25 -13 -45 -28 -68 -54 -244 -131 -376 -165 -76 -20 -259 -47 -315 -47 -96 0 -334 44 -408 76 -18 8 -38 14 -45 14 -20 0 -200 92 -238 122 -20 15 -41 28 -46 28 -6 0 -30 20 -54 45 -24 25 -51 45 -59 44 -8 0 -35 -16 -60 -35z m93 -148 c18 -7 56 -30 86 -50 221 -150 564 -233 849 -206 217 20 413 86 611 204 62 36 116 66 122 66 67 0 304 -223 438 -412 118 -168 175 -318 174 -468 0 -171 -84 -294 -247 -363 l-51 -22 -1165 0 -1165 0 -55 23 c-89 37 -158 97 -197 172 -110 213 -37 467 224 782 83 100 214 222 278 259 58 33 56 33 98 15z"/> <path d="M5599 2067 c-264 -207 -390 -345 -546 -602 -20 -33 -53 -107 -53 -119 0 -7 -7 -21 -15 -32 -8 -10 -15 -28 -15 -39 0 -11 -7 -38 -15 -60 -8 -24 -14 -79 -15 -140 0 -106 17 -176 60 -247 11 -18 24 -42 29 -53 15 -35 124 -129 182 -157 131 -64 16 -59 1329 -56 997 3 1201 5 1230 17 19 8 40 16 45 18 6 2 19 9 30 16 145 89 207 165 256 310 32 96 20 280 -26 392 -63 152 -168 322 -267 432 -116 128 -284 283 -307 283 -6 0 -11 4 -11 8 0 10 -96 82 -110 82 -5 0 -31 -20 -58 -45 -26 -25 -51 -45 -56 -45 -4 0 -25 -12 -45 -27 -43 -33 -70 -51 -91 -59 -8 -4 -38 -17 -66 -30 -101 -46 -215 -82 -294 -93 -242 -35 -248 -35 -337 -22 -49 8 -110 17 -138 21 -50 7 -129 28 -195 51 -67 24 -225 103 -261 131 -20 15 -41 28 -46 28 -6 0 -30 20 -54 45 -24 25 -51 44 -59 44 -8 -1 -45 -24 -81 -52z m189 -176 c161 -95 247 -132 412 -175 347 -92 724 -32 1059 168 62 36 119 66 129 66 45 -1 260 -189 351 -307 169 -219 213 -305 246 -480 20 -106 13 -177 -26 -260 -39 -81 -127 -162 -212 -195 l-62 -23 -1160 0 c-1153 0 -1160 0 -1211 21 -137 56 -223 162 -245 303 -13 89 -5 162 28 256 68 187 186 359 370 537 83 79 180 148 210 148 7 0 57 -26 111 -59z"/> </g> </svg> 