 <svg  version="1.0" xmlns="http://www.w3.org/2000/svg"  width="900.000000pt" height="900.000000pt" viewBox="0 0 900.000000 900.000000"  preserveAspectRatio="xMidYMid meet">  <g transform="translate(0.000000,900.000000) scale(0.100000,-0.100000)" fill="#ffffff" stroke="none"> <path d="M3125 7785 c-5 -1 -44 -8 -85 -15 -109 -17 -204 -43 -350 -96 -175 -63 -417 -229 -570 -390 -53 -56 -180 -217 -180 -228 0 -3 -12 -22 -26 -43 -69 -102 -153 -309 -194 -478 -18 -74 -40 -270 -40 -355 0 -85 22 -280 40 -355 37 -156 116 -352 192 -478 94 -154 265 -345 403 -448 64 -49 153 -109 160 -109 2 0 26 -13 52 -28 73 -42 227 -105 333 -135 161 -46 210 -52 435 -51 176 0 236 4 300 18 257 59 442 140 659 289 123 85 330 312 412 452 16 27 34 59 41 70 7 11 17 30 22 42 6 13 20 42 31 65 24 48 47 108 60 153 4 17 13 44 19 60 63 185 83 473 47 695 -14 92 -24 133 -66 275 -63 216 -258 515 -439 674 -259 227 -520 351 -852 405 -82 14 -371 22 -404 11z"/> <path d="M5870 7594 c-163 -36 -216 -49 -269 -69 -53 -19 -150 -62 -171 -76 -8 -5 -26 -14 -39 -19 -97 -42 -371 -261 -371 -297 0 -7 20 -55 44 -106 25 -50 51 -110 59 -132 82 -232 110 -358 128 -577 16 -188 3 -347 -45 -578 -34 -164 -117 -372 -224 -561 l-32 -56 22 -29 c77 -103 253 -249 393 -326 70 -39 194 -98 205 -98 5 0 24 -6 42 -14 40 -17 119 -40 218 -63 109 -25 462 -25 575 0 260 59 440 140 636 289 90 67 239 214 282 278 17 25 33 47 37 50 31 25 190 330 190 365 0 9 6 28 13 43 14 28 36 120 62 256 35 185 4 531 -61 684 -8 18 -14 40 -14 48 0 22 -93 212 -142 292 -79 127 -196 261 -315 360 -55 46 -189 142 -198 142 -2 0 -26 13 -52 28 -44 25 -156 75 -243 107 -51 19 -143 42 -240 59 -109 20 -397 20 -490 0z"/> <path d="M1625 4194 c-47 -5 -172 -37 -232 -58 -197 -72 -392 -217 -521 -389 -53 -72 -162 -279 -162 -310 0 -9 -6 -31 -14 -49 -13 -30 -59 -173 -139 -428 -16 -52 -35 -111 -42 -130 -7 -19 -21 -62 -30 -95 -10 -33 -24 -75 -31 -93 -8 -18 -14 -39 -14 -47 0 -8 -6 -29 -14 -47 -7 -18 -21 -60 -31 -93 -9 -33 -23 -76 -30 -95 -7 -19 -27 -82 -45 -140 -18 -58 -39 -127 -48 -155 -25 -78 -22 -281 5 -365 45 -138 89 -213 179 -303 67 -67 117 -103 198 -141 138 -65 -87 -60 2619 -63 2409 -3 2459 -3 2532 16 204 54 372 193 460 381 51 109 60 151 60 295 0 140 -5 169 -50 295 -7 19 -27 80 -44 135 -81 260 -94 302 -106 335 -7 19 -27 82 -45 140 -18 58 -38 121 -45 140 -7 19 -27 82 -45 140 -18 58 -38 121 -45 140 -7 19 -21 62 -30 95 -73 250 -166 417 -314 566 -116 115 -268 213 -415 266 -140 50 -184 57 -391 57 -213 -1 -229 -3 -425 -67 -164 -53 -388 -101 -625 -133 -184 -26 -734 -25 -915 0 -216 30 -438 76 -565 118 -201 65 -275 79 -440 83 -88 2 -178 1 -200 -1z"/> <path d="M7090 3750 c-41 -10 -118 -29 -170 -42 -167 -44 -428 -88 -520 -88 -103 0 -192 -12 -197 -27 -5 -13 36 -156 72 -253 7 -19 28 -82 46 -140 31 -100 72 -231 164 -515 23 -71 56 -177 74 -235 18 -58 39 -121 46 -140 18 -49 42 -134 60 -211 21 -90 20 -342 -1 -423 -44 -173 -104 -305 -185 -413 -21 -29 -39 -57 -39 -63 0 -7 260 -9 863 -7 759 3 868 5 913 19 243 77 410 246 490 498 23 71 24 293 2 360 -9 25 -30 92 -48 150 -17 58 -38 121 -45 140 -7 19 -21 62 -30 95 -10 33 -24 75 -31 93 -8 18 -14 39 -14 47 0 8 -6 29 -14 47 -8 18 -22 60 -31 93 -10 33 -23 76 -30 95 -7 19 -22 64 -34 100 -41 131 -69 196 -123 292 -68 119 -218 275 -349 361 -208 136 -387 188 -643 186 -108 -1 -172 -6 -226 -19z"/> </g> </svg> 