<svg version="1.1" id="Layer_1" xmlns="http://www.w3.org/2000/svg" xmlns:xlink="http://www.w3.org/1999/xlink" x="0px" y="0px"
	 width="100%" viewBox="0 0 114 119" enable-background="new 0 0 114 119" xml:space="preserve">
<path fill="#050505" opacity="1.000000" stroke="none" 
	d="
M63.000000,120.000000 
	C42.000000,120.000000 21.500000,120.000000 1.000000,120.000000 
	C1.000000,80.333336 1.000000,40.666668 1.000000,1.000000 
	C39.000000,1.000000 77.000000,1.000000 115.000000,1.000000 
	C115.000000,40.666668 115.000000,80.333336 115.000000,120.000000 
	C97.833336,120.000000 80.666664,120.000000 63.000000,120.000000 
M45.875896,116.947952 
	C47.000984,115.447403 48.492886,114.087807 49.140064,112.403603 
	C49.700977,110.943901 49.326351,109.116272 49.327377,107.451233 
	C49.334236,96.342804 49.330936,85.234367 49.330936,74.181183 
	C55.189766,74.181183 60.423077,74.181183 65.911186,74.181183 
	C65.911186,86.499626 65.990616,98.473228 65.870552,110.444832 
	C65.825027,114.983917 67.498550,117.256531 72.286903,117.204361 
	C83.447906,117.082748 94.611763,117.096581 105.773125,117.200104 
	C110.137840,117.240585 112.247368,115.439323 112.239204,110.988426 
	C112.196709,87.830856 112.300323,64.672386 112.076584,41.516895 
	C112.056442,39.432579 110.604561,36.574066 108.904358,35.416958 
	C93.368561,24.843733 77.620575,14.582644 61.959843,4.192295 
	C58.964085,2.204713 56.171600,2.264662 53.178154,4.252177 
	C37.661572,14.554490 22.037317,24.697107 6.644979,35.180790 
	C4.812677,36.428764 3.149215,39.405090 3.125003,41.599232 
	C2.871341,64.587486 3.011460,87.579758 2.931503,110.570526 
	C2.915448,115.186966 4.799422,117.259148 9.493203,117.204475 
	C21.319994,117.066704 33.149063,117.124496 45.875896,116.947952 
z"/>
<path fill="#E2E4E5" opacity="1.000000" stroke="none" 
	d="
M45.426559,117.025925 
	C33.149063,117.124496 21.319994,117.066704 9.493203,117.204475 
	C4.799422,117.259148 2.915448,115.186966 2.931503,110.570526 
	C3.011460,87.579758 2.871341,64.587486 3.125003,41.599232 
	C3.149215,39.405090 4.812677,36.428764 6.644979,35.180790 
	C22.037317,24.697107 37.661572,14.554490 53.178154,4.252177 
	C56.171600,2.264662 58.964085,2.204713 61.959843,4.192295 
	C77.620575,14.582644 93.368561,24.843733 108.904358,35.416958 
	C110.604561,36.574066 112.056442,39.432579 112.076584,41.516895 
	C112.300323,64.672386 112.196709,87.830856 112.239204,110.988426 
	C112.247368,115.439323 110.137840,117.240585 105.773125,117.200104 
	C94.611763,117.096581 83.447906,117.082748 72.286903,117.204361 
	C67.498550,117.256531 65.825027,114.983917 65.870552,110.444832 
	C65.990616,98.473228 65.911186,86.499626 65.911186,74.181183 
	C60.423077,74.181183 55.189766,74.181183 49.330936,74.181183 
	C49.330936,85.234367 49.334236,96.342804 49.327377,107.451233 
	C49.326351,109.116272 49.700977,110.943901 49.140064,112.403603 
	C48.492886,114.087807 47.000984,115.447403 45.426559,117.025925 
M51.469021,19.941088 
	C40.253624,27.413622 29.094772,34.973492 17.782810,42.296867 
	C14.978361,44.112465 13.809253,46.021824 13.848516,49.475292 
	C14.047445,66.971848 13.935306,84.471893 13.948941,101.970703 
	C13.950072,103.421875 14.075885,104.872948 14.131168,106.054749 
	C22.448872,106.054749 30.353992,106.054749 38.562489,106.054749 
	C38.562489,93.474213 38.603931,81.317680 38.540443,69.161682 
	C38.517628,64.793396 40.430962,62.742321 44.874832,62.794384 
	C53.373096,62.893944 61.874775,62.917374 70.372215,62.787781 
	C75.142693,62.715031 76.941612,65.087013 76.913620,69.546608 
	C76.856102,78.712349 76.877037,87.878601 76.867622,97.044640 
	C76.864441,100.139107 76.867119,103.233582 76.867119,106.202072 
	C85.324715,106.202072 93.091827,106.202072 101.282326,106.202072 
	C101.282326,86.299965 101.310555,66.673180 101.206635,47.047092 
	C101.200882,45.961205 100.374512,44.476082 99.466492,43.859013 
	C85.587723,34.427349 71.631691,25.109371 57.712532,15.777534 
	C55.656895,17.136686 53.856640,18.326982 51.469021,19.941088 
z"/>
<path fill="#010202" opacity="1.000000" stroke="none" 
	d="
M51.762703,19.729183 
	C53.856640,18.326982 55.656895,17.136686 57.712532,15.777534 
	C71.631691,25.109371 85.587723,34.427349 99.466492,43.859013 
	C100.374512,44.476082 101.200882,45.961205 101.206635,47.047092 
	C101.310555,66.673180 101.282326,86.299965 101.282326,106.202072 
	C93.091827,106.202072 85.324715,106.202072 76.867119,106.202072 
	C76.867119,103.233582 76.864441,100.139107 76.867622,97.044640 
	C76.877037,87.878601 76.856102,78.712349 76.913620,69.546608 
	C76.941612,65.087013 75.142693,62.715031 70.372215,62.787781 
	C61.874775,62.917374 53.373096,62.893944 44.874832,62.794384 
	C40.430962,62.742321 38.517628,64.793396 38.540443,69.161682 
	C38.603931,81.317680 38.562489,93.474213 38.562489,106.054749 
	C30.353992,106.054749 22.448872,106.054749 14.131168,106.054749 
	C14.075885,104.872948 13.950072,103.421875 13.948941,101.970703 
	C13.935306,84.471893 14.047445,66.971848 13.848516,49.475292 
	C13.809253,46.021824 14.978361,44.112465 17.782810,42.296867 
	C29.094772,34.973492 40.253624,27.413622 51.762703,19.729183 
z"/>
</svg>