 <svg  version="1.0" xmlns="http://www.w3.org/2000/svg"  width="300.000000pt" height="300.000000pt" viewBox="0 0 300.000000 300.000000"  preserveAspectRatio="xMidYMid meet">  <g transform="translate(0.000000,300.000000) scale(0.050000,-0.050000)" fill="#fdfcfc" stroke="none"> <path d="M3447 5978 c-588 -73 -824 -820 -376 -1190 383 -316 959 -208 1186 221 194 369 -85 907 -500 961 -169 23 -188 23 -310 8z m309 -241 c272 -147 324 -218 324 -442 0 -257 -164 -425 -440 -450 -336 -30 -580 159 -580 451 0 225 31 265 340 438 185 103 170 103 356 3z"/> <path d="M2480 3914 c-93 -24 -293 -89 -443 -143 l-273 -99 -32 -121 c-17 -67 -37 -145 -43 -174 l-13 -54 157 51 c324 106 614 63 695 -103 85 -173 51 -397 -198 -1281 -301 -1068 -321 -1316 -132 -1613 234 -369 856 -474 1483 -250 489 174 476 167 497 249 11 41 30 113 42 161 29 111 29 111 -112 59 -159 -58 -523 -65 -623 -10 -220 120 -202 363 112 1474 296 1046 302 1337 35 1634 -223 248 -696 338 -1152 220z m764 -253 c291 -91 343 -187 331 -615 l-9 -316 -154 -540 c-357 -1250 -367 -1491 -68 -1760 55 -49 108 -90 118 -90 55 0 4 -57 -77 -86 -52 -19 -148 -65 -213 -102 l-117 -66 -263 130 c-457 227 -472 248 -472 662 0 322 -4 302 230 1132 289 1027 291 1256 14 1524 -107 104 -108 105 -61 126 149 66 526 67 741 1z"/> </g> </svg> 