 <svg  version="1.0" xmlns="http://www.w3.org/2000/svg"  width="300.000000pt" height="300.000000pt" viewBox="0 0 300.000000 300.000000"  preserveAspectRatio="xMidYMid meet">  <g transform="translate(0.000000,300.000000) scale(0.100000,-0.100000)" fill="#fcfcfc" stroke="none"> <path d="M1366 2379 c3 -35 7 -66 7 -69 1 -3 -6 -19 -15 -35 -29 -55 -31 -96 -6 -145 22 -43 25 -45 66 -44 25 0 42 -4 41 -10 -4 -33 6 -52 56 -105 68 -75 93 -125 140 -276 50 -163 54 -173 83 -195 37 -29 78 -26 114 10 34 34 36 28 -33 105 l-27 30 174 204 c116 135 174 212 174 227 0 44 -33 54 -172 54 -69 0 -138 -4 -151 -9 -14 -5 -38 -28 -53 -50 -16 -22 -32 -41 -36 -41 -20 0 -57 90 -64 155 -4 39 -12 81 -19 95 -7 14 -15 49 -18 79 -4 30 -10 58 -15 63 -5 5 -26 -10 -48 -34 -51 -55 -79 -53 -152 9 l-53 46 7 -64z m237 -97 c10 -31 22 -86 28 -122 5 -36 17 -76 26 -90 25 -39 55 -70 69 -70 8 0 36 20 64 45 l51 45 112 0 c62 0 119 -5 127 -10 21 -13 10 -30 -145 -211 -168 -197 -178 -211 -165 -241 5 -13 19 -35 31 -50 24 -29 20 -58 -8 -58 -36 1 -52 28 -93 160 -48 156 -87 238 -140 296 -21 22 -46 54 -56 70 -31 50 -57 74 -80 74 -27 0 -41 17 -25 33 7 7 16 6 30 -7 26 -24 63 -15 81 19 23 43 -21 92 -60 67 -47 -29 -67 -4 -47 59 10 33 15 39 32 33 46 -15 90 -15 110 0 32 24 39 19 58 -42z m-220 -81 c3 -11 2 -22 -1 -25 -8 -9 -32 14 -32 30 0 21 27 17 33 -5z m113 -3 c8 -12 -21 -38 -43 -38 -16 0 -17 22 -1 38 15 15 35 15 44 0z"/> <path d="M1864 2411 c-59 -26 -83 -114 -44 -163 64 -81 190 -39 190 63 0 72 -81 127 -146 100z m65 -42 c54 -19 52 -95 -4 -121 -22 -10 -30 -8 -53 9 -43 32 -43 90 0 111 13 6 23 11 24 11 1 1 15 -4 33 -10z"/> <path d="M983 2120 c-12 -5 -27 -18 -33 -30 -15 -28 -20 -20 203 -280 l184 -214 -91 -106 c-50 -58 -105 -123 -123 -145 l-32 -40 0 45 c-1 72 29 124 93 165 41 26 56 42 56 58 0 99 -156 26 -220 -103 -29 -57 -37 -151 -18 -206 14 -40 14 -41 -19 -80 -34 -41 -41 -72 -21 -92 8 -8 60 -12 168 -12 l155 0 128 155 128 155 46 -58 c26 -31 84 -101 130 -154 l84 -98 158 0 c223 0 227 8 84 177 -54 63 -107 127 -119 140 -20 25 -21 26 -48 8 -34 -23 -120 -24 -163 -2 -59 31 -87 79 -133 230 -24 78 -49 157 -57 174 -15 38 -201 272 -238 301 -21 17 -42 20 -152 20 -71 1 -138 -3 -150 -8z m345 -115 c36 -44 78 -96 94 -115 51 -60 74 -110 118 -255 55 -179 83 -225 164 -267 39 -20 119 -22 172 -4 17 6 36 -10 117 -106 54 -62 97 -118 97 -125 0 -7 -10 -15 -22 -17 -19 -4 -180 -2 -240 3 -9 0 -67 62 -128 136 -116 139 -143 164 -172 157 -9 -2 -61 -56 -115 -119 -54 -64 -110 -130 -124 -147 l-27 -31 -125 -1 c-69 -1 -131 2 -138 7 -10 6 -6 17 16 48 20 30 27 51 25 74 -2 17 -4 62 -4 99 0 85 38 167 97 206 49 33 58 23 11 -13 -58 -45 -93 -108 -90 -165 3 -74 37 -100 81 -62 11 9 40 42 65 72 25 30 60 71 78 92 58 63 82 101 82 127 -1 29 -3 33 -81 122 -110 125 -262 304 -277 327 -24 36 -3 42 137 40 l124 -3 65 -80z"/> <path d="M1481 1178 c-28 -35 -50 -70 -49 -78 5 -23 211 -22 216 1 3 15 -93 139 -108 139 -4 0 -31 -28 -59 -62z m88 -25 c25 -31 24 -34 -24 -37 -44 -4 -56 15 -30 44 23 26 29 25 54 -7z"/> <path d="M856 1208 c-11 -16 -16 -46 -16 -101 0 -63 5 -87 25 -127 13 -27 29 -51 35 -55 23 -14 7 -22 -44 -21 -62 0 -86 -14 -86 -55 0 -62 -39 -59 750 -59 640 0 720 2 734 16 20 19 20 54 2 80 -14 18 -35 19 -609 24 l-595 5 -38 31 c-21 17 -49 50 -62 75 -21 39 -23 53 -18 113 4 45 2 73 -5 82 -17 21 -56 17 -73 -8z m39 -87 c-14 -85 47 -184 139 -227 l51 -24 563 0 c498 0 563 -2 569 -15 3 -9 3 -18 1 -21 -4 -3 -1248 -8 -1358 -4 -14 0 -32 5 -40 10 -13 9 -13 11 0 20 8 5 30 10 48 10 18 0 40 8 52 20 19 19 19 20 -7 77 -30 65 -45 193 -23 193 8 0 10 -12 5 -39z"/> </g> </svg> 