 <svg  version="1.0" xmlns="http://www.w3.org/2000/svg"  width="300.000000pt" height="300.000000pt" viewBox="0 0 300.000000 300.000000"  preserveAspectRatio="xMidYMid meet">  <g transform="translate(0.000000,300.000000) scale(0.100000,-0.100000)" fill="#ffffff" stroke="none"> <path d="M471 2974 c-241 -65 -462 -330 -461 -554 1 -44 1 -44 15 -20 8 14 19 48 26 75 18 78 81 204 134 268 80 97 185 158 352 207 40 11 75 25 78 30 9 15 -81 11 -144 -6z"/> <path d="M1570 2980 c8 -5 65 -26 126 -45 66 -22 135 -52 171 -76 122 -79 222 -217 258 -356 12 -45 15 -127 15 -386 l0 -328 -25 -24 c-13 -14 -32 -25 -43 -25 -10 0 -49 20 -86 45 -101 66 -156 70 -268 21 -133 -59 -135 -59 -643 -63 -535 -5 -562 -2 -703 67 -153 76 -270 224 -321 407 -28 101 -40 121 -41 63 -1 -185 157 -414 350 -509 139 -68 165 -71 678 -71 505 0 538 3 692 67 118 49 158 43 261 -35 38 -29 50 -33 87 -29 54 6 88 37 103 91 15 54 5 631 -11 701 -19 81 -94 225 -150 287 -70 78 -183 152 -281 183 -78 24 -201 36 -169 15z"/> <path d="M567 2799 c-157 -31 -294 -151 -348 -306 -28 -82 -26 -212 4 -296 45 -124 147 -228 275 -279 56 -22 64 -23 502 -26 495 -4 527 -1 660 55 77 33 94 37 190 39 145 3 140 -6 140 233 0 205 -11 271 -57 351 -69 118 -200 209 -328 230 -75 12 -973 11 -1038 -1z m1039 -40 c134 -25 243 -109 305 -234 l34 -69 3 -216 4 -215 -109 0 c-102 0 -113 -2 -194 -37 -47 -20 -114 -42 -150 -47 -83 -14 -848 -14 -920 -1 -219 41 -374 256 -340 471 28 173 171 321 337 348 76 13 960 13 1030 0z"/> <path d="M573 2489 c-99 -29 -135 -161 -65 -237 88 -94 238 -41 249 87 9 102 -85 179 -184 150z m96 -53 c91 -47 51 -186 -54 -186 -80 0 -129 80 -91 149 26 48 91 64 145 37z"/> <path d="M1035 2485 c-22 -8 -41 -15 -42 -15 -1 0 -14 -17 -28 -37 -52 -78 -24 -177 61 -215 126 -55 247 73 188 198 -30 63 -110 94 -179 69z m113 -60 c75 -63 33 -175 -66 -175 -80 0 -127 79 -88 149 30 54 106 67 154 26z"/> <path d="M1493 2480 c-113 -51 -112 -211 2 -261 56 -25 104 -18 151 23 63 56 69 139 13 203 -26 30 -80 55 -114 55 -5 0 -29 -9 -52 -20z m128 -58 c25 -23 32 -36 33 -71 1 -36 -4 -47 -32 -72 -70 -62 -172 -20 -172 71 0 90 102 133 171 72z"/> <path d="M2313 1536 c-108 -35 -203 -126 -243 -233 -31 -83 -26 -216 13 -294 35 -73 107 -143 187 -182 58 -29 73 -32 155 -32 80 0 97 4 155 31 160 76 249 241 220 406 -23 127 -105 234 -218 286 -69 31 -201 40 -269 18z m251 -54 c68 -31 139 -102 171 -173 25 -56 27 -70 23 -153 -3 -77 -8 -99 -33 -145 -58 -106 -168 -173 -289 -175 -85 -1 -136 13 -200 56 -102 67 -151 170 -144 302 5 99 37 165 111 232 91 82 247 106 361 56z"/> <path d="M2355 1341 c-143 -65 -150 -263 -11 -334 89 -47 195 -10 244 84 50 97 6 209 -100 254 -49 20 -84 19 -133 -4z m135 -39 c137 -68 88 -274 -65 -274 -81 0 -136 53 -143 136 -3 41 1 57 20 85 45 66 121 87 188 53z"/> <path d="M420 1474 c-74 -20 -126 -52 -184 -113 -74 -80 -91 -126 -91 -251 0 -99 2 -110 32 -171 39 -79 102 -140 181 -177 50 -24 70 -27 157 -27 87 0 107 3 157 27 114 53 195 160 218 286 35 194 -100 389 -298 431 -68 14 -104 13 -172 -5z m228 -56 c74 -28 153 -108 182 -185 31 -81 25 -205 -12 -278 -32 -61 -103 -129 -166 -158 -68 -32 -207 -31 -277 1 -63 29 -129 92 -163 157 -24 44 -27 61 -27 150 0 86 3 107 24 150 80 161 261 228 439 163z"/> <path d="M427 1269 c-50 -26 -89 -87 -94 -147 -5 -59 25 -123 80 -166 34 -27 47 -31 102 -31 56 0 68 4 102 31 80 65 102 148 62 232 -44 91 -162 129 -252 81z m168 -39 c92 -57 83 -203 -15 -252 -67 -34 -143 -13 -188 53 -20 28 -23 43 -19 88 3 48 9 59 45 93 37 34 47 38 93 38 34 0 63 -7 84 -20z"/> <path d="M1374 1476 c-66 -16 -128 -53 -182 -107 -181 -184 -121 -496 116 -607 50 -24 70 -27 157 -27 87 0 107 3 157 27 188 88 273 313 189 502 -24 56 -101 139 -159 173 -49 29 -138 53 -192 52 -19 0 -58 -6 -86 -13z m209 -52 c91 -32 171 -114 204 -210 22 -65 14 -195 -16 -252 -34 -66 -96 -128 -160 -159 -49 -24 -68 -28 -146 -28 -71 0 -100 5 -137 22 -71 32 -141 103 -173 174 -24 54 -27 70 -23 147 4 104 29 163 96 230 89 90 229 120 355 76z"/> <path d="M1377 1269 c-68 -36 -108 -123 -93 -204 9 -47 76 -120 123 -136 85 -28 175 13 221 102 80 153 -96 320 -251 238z m161 -35 c43 -25 65 -63 70 -118 5 -61 -23 -111 -78 -138 -68 -34 -144 -13 -188 52 -43 63 -20 161 48 204 33 20 115 20 148 0z"/> <path d="M2240 645 c-234 -64 -410 -283 -410 -510 0 -97 63 -148 153 -124 48 13 72 51 80 129 13 116 72 201 175 252 63 31 72 33 177 33 98 0 116 -3 165 -26 108 -51 173 -144 186 -266 8 -75 30 -108 81 -122 46 -13 87 -4 117 25 20 21 42 84 28 84 -3 0 -27 -23 -54 -51 -47 -46 -52 -49 -71 -36 -37 25 -56 60 -66 126 -20 124 -89 219 -199 273 -64 32 -71 33 -187 33 -109 0 -125 -2 -177 -27 -117 -55 -190 -152 -213 -284 -13 -73 -30 -105 -68 -126 -14 -7 -25 -2 -52 25 -30 30 -35 41 -35 84 0 118 64 258 159 345 101 92 228 138 386 138 270 0 447 -130 534 -390 33 -100 43 -107 38 -26 -9 131 -110 287 -238 369 -103 65 -158 80 -314 84 -102 2 -155 -1 -195 -12z"/> <path d="M351 564 c-178 -48 -326 -209 -338 -368 -5 -74 6 -62 48 52 48 127 133 214 259 264 47 18 81 22 227 26 l172 4 32 -31 c25 -26 30 -37 24 -59 -13 -54 -23 -57 -203 -63 -140 -4 -175 -8 -213 -26 -90 -40 -149 -123 -165 -228 -5 -38 -15 -58 -40 -83 l-34 -34 -29 22 c-17 11 -40 34 -51 50 -27 38 -38 38 -32 0 9 -62 77 -98 149 -78 45 12 69 48 77 113 11 93 55 159 136 201 28 15 68 19 211 24 189 5 197 8 225 61 29 56 8 126 -46 154 -40 21 -331 20 -409 -1z"/> <path d="M1290 569 c-127 -25 -253 -126 -316 -254 -32 -65 -38 -88 -42 -158 -4 -73 -2 -85 17 -109 35 -44 112 -55 162 -23 29 19 49 59 49 100 0 60 43 139 95 175 58 40 108 49 257 50 125 0 128 1 158 28 59 52 48 152 -20 187 -22 11 -62 15 -172 14 -79 -1 -163 -5 -188 -10z m334 -40 c50 -23 55 -103 9 -127 -10 -6 -81 -12 -158 -14 -119 -4 -148 -8 -193 -27 -87 -39 -161 -144 -162 -230 -1 -34 -18 -64 -53 -91 l-27 -22 -36 36 c-37 37 -37 37 -32 107 13 176 148 326 328 365 72 16 291 17 324 3z"/> </g> </svg> 