 <svg  version="1.0" xmlns="http://www.w3.org/2000/svg"  width="300.000000pt" height="300.000000pt" viewBox="0 0 300.000000 300.000000"  preserveAspectRatio="xMidYMid meet">  <g transform="translate(0.000000,300.000000) scale(0.100000,-0.100000)" fill="#ffffff" stroke="none"> <path d="M510 2984 c-180 -38 -357 -177 -439 -344 -68 -140 -87 -279 -56 -425 38 -184 176 -361 345 -444 139 -68 165 -71 678 -71 504 0 538 3 690 66 119 49 159 44 257 -31 44 -33 54 -37 93 -32 54 6 88 37 103 91 8 28 10 142 6 351 -5 347 -10 374 -78 505 -90 175 -249 294 -442 334 -105 22 -1056 22 -1157 0z m1162 -242 c121 -49 205 -130 250 -242 20 -49 23 -76 26 -265 l3 -210 -108 0 c-102 -1 -113 -3 -195 -38 -48 -20 -117 -41 -155 -47 -88 -13 -830 -13 -908 0 -223 36 -379 251 -344 473 28 175 167 317 339 346 30 5 276 8 545 7 486 -1 490 -1 547 -24z"/> <path d="M573 2489 c-99 -29 -135 -161 -65 -237 88 -94 238 -41 249 87 9 102 -85 179 -184 150z"/> <path d="M1037 2486 c-68 -25 -97 -66 -97 -138 0 -60 30 -105 86 -130 126 -55 247 73 188 198 -29 62 -110 94 -177 70z"/> <path d="M1507 2486 c-20 -8 -44 -20 -53 -27 -46 -38 -58 -131 -24 -187 27 -44 96 -75 146 -66 75 14 133 96 119 170 -8 46 -58 101 -103 114 -44 12 -38 12 -85 -4z"/> <path d="M2303 1532 c-101 -36 -177 -105 -220 -199 -89 -193 -6 -415 187 -507 58 -27 75 -31 155 -31 80 0 97 4 157 32 120 56 194 155 219 289 29 156 -67 332 -219 402 -76 35 -203 41 -279 14z m187 -231 c48 -25 80 -75 80 -123 0 -90 -58 -148 -148 -148 -147 0 -194 194 -66 267 48 28 88 29 134 4z"/> <path d="M424 1477 c-103 -27 -214 -119 -256 -214 -83 -188 2 -413 190 -501 50 -24 70 -27 157 -27 93 0 105 2 167 33 149 73 238 241 209 397 -41 223 -256 365 -467 312z m188 -265 c36 -34 42 -45 45 -93 4 -45 1 -60 -19 -89 -32 -47 -82 -72 -135 -67 -129 13 -178 166 -81 253 30 28 43 32 101 33 42 1 53 -4 89 -37z"/> <path d="M1382 1479 c-98 -19 -210 -108 -257 -204 -94 -191 -11 -422 183 -513 50 -24 70 -27 157 -27 87 0 107 3 157 27 153 72 245 240 218 402 -35 218 -240 358 -458 315z m174 -260 c99 -92 52 -242 -79 -256 -52 -5 -102 20 -135 68 -34 49 -27 127 14 170 39 42 60 49 122 46 38 -3 59 -10 78 -28z"/> <path d="M2240 645 c-236 -65 -410 -281 -410 -511 0 -104 84 -163 170 -119 38 19 56 55 64 127 10 76 57 169 106 208 76 60 124 75 245 75 98 0 116 -3 165 -26 106 -50 171 -144 185 -264 9 -73 17 -91 58 -115 83 -51 177 8 177 112 -1 207 -150 415 -356 495 -61 23 -86 27 -209 30 -102 2 -155 -1 -195 -12z"/> <path d="M355 566 c-196 -48 -354 -242 -355 -434 0 -104 94 -163 177 -112 40 24 49 41 58 110 13 95 60 162 140 196 31 14 80 19 211 23 183 6 192 9 220 62 29 56 8 126 -46 154 -37 19 -328 20 -405 1z"/> <path d="M1271 564 c-186 -50 -328 -219 -339 -404 -5 -88 4 -112 51 -140 38 -24 78 -25 117 -5 37 19 56 55 63 122 10 85 52 144 132 186 33 17 65 21 197 26 153 6 158 7 184 32 52 53 39 151 -26 184 -40 20 -302 20 -379 -1z"/> </g> </svg> 