<?xml version="1.0" standalone="no"?>
<!DOCTYPE svg PUBLIC "-//W3C//DTD SVG 20010904//EN"
 "http://www.w3.org/TR/2001/REC-SVG-20010904/DTD/svg10.dtd">
<svg version="1.0" xmlns="http://www.w3.org/2000/svg"
 width="300.000000pt" height="300.000000pt" viewBox="0 0 300.000000 300.000000"
 preserveAspectRatio="xMidYMid meet">
<metadata>
Created by potrace 1.10, written by Peter Selinger 2001-2011
</metadata>
<g transform="translate(0.000000,300.000000) scale(0.050000,-0.050000)"
fill="#ffffff" stroke="none">
<path d="M2595 5880 c-2070 -326 -3151 -2596 -2083 -4374 164 -273 149 -263
229 -151 259 360 808 749 1305 923 1144 400 2533 -10 3238 -955 l51 -68 116
188 c1067 1711 152 3929 -1811 4391 -234 55 -822 81 -1045 46z m895 -272 c818
-139 1555 -683 1927 -1422 351 -697 332 -1780 -42 -2451 -57 -102 -78 -96
-249 66 -436 415 -1045 727 -1621 831 -218 39 -224 49 -65 108 924 345 1175
1548 471 2250 -539 538 -1286 533 -1834 -11 -687 -683 -459 -1841 438 -2220
109 -46 184 -99 139 -99 -443 0 -1268 -386 -1744 -818 -236 -213 -225 -210
-304 -77 -344 582 -387 1595 -96 2274 488 1141 1712 1786 2980 1569z m-146
-507 c782 -243 1037 -1267 461 -1849 -715 -720 -1925 -229 -1925 782 0 759
734 1293 1464 1067z"/>
<path d="M2697 4914 c-632 -216 -839 -1028 -386 -1513 457 -489 1251 -368
1534 234 348 739 -373 1543 -1148 1279z m593 -256 c132 -49 293 -190 348 -305
61 -125 61 -521 1 -646 -246 -507 -1049 -493 -1299 23 -57 119 -58 473 0 599
143 315 582 467 950 329z"/>
<path d="M5894 5407 c-7 -7 -3 -30 9 -52 19 -37 16 -40 -31 -31 -44 9 -52 3
-52 -37 0 -26 9 -47 19 -47 11 0 15 14 8 30 -7 19 1 30 21 30 29 0 41 -24 34
-66 -2 -10 5 -12 14 -7 9 6 14 49 10 96 -7 90 -12 104 -32 84z"/>
<path d="M5951 5141 c-8 -12 -24 -16 -37 -8 -13 7 -17 6 -9 -3 8 -9 6 -26 -4
-39 -12 -14 -12 -34 0 -52 14 -23 18 -19 19 17 0 30 8 41 23 32 14 -8 18 -5
10 7 -7 12 -2 26 12 31 14 4 19 15 12 23 -7 7 -19 4 -26 -8z"/>
<path d="M5844 5032 c8 -9 5 -35 -6 -56 -18 -34 -16 -37 15 -19 40 20 50 23
97 23 17 0 30 14 30 31 0 29 -3 29 -32 -1 -30 -29 -36 -29 -75 4 -24 19 -37
28 -29 18z"/>
<path d="M5903 4858 c-19 -51 -6 -158 20 -158 10 0 12 24 4 53 -11 44 -7 51
20 41 18 -7 33 -5 33 4 0 10 -14 23 -32 30 -18 7 -27 25 -21 42 7 17 7 30 2
30 -6 0 -17 -19 -26 -42z"/>
<path d="M2511 2209 c-555 -104 -1070 -385 -1474 -805 -283 -294 -280 -276
-85 -464 1185 -1140 3005 -1119 4147 48 131 134 133 127 -111 388 -623 668
-1602 997 -2477 833z m979 -259 c490 -101 910 -318 1253 -645 189 -181 188
-172 32 -316 -949 -880 -2658 -869 -3580 21 -123 119 -120 143 30 282 620 574
1473 822 2265 658z"/>
</g>
</svg>
